<svg width="135" height="54" viewBox="0 0 135 54" fill="none" xmlns="http://www.w3.org/2000/svg">
<path d="M59.4189 20.7267C59.4189 20.1334 59.4972 19.5618 59.6529 19.0119C59.8085 18.462 60.0277 17.9485 60.3097 17.4729C60.5924 16.9966 60.9301 16.5636 61.3243 16.1717C61.7178 15.7813 62.1562 15.4459 62.6379 15.1663C63.1205 14.8875 63.6371 14.6714 64.1901 14.5181C64.7431 14.3655 65.3163 14.2888 65.9096 14.2888C66.5036 14.2888 67.0768 14.3655 67.6298 14.5181C68.1821 14.6714 68.7002 14.8875 69.182 15.1663C69.6645 15.4459 70.1021 15.7805 70.4964 16.1717C70.8898 16.5628 71.2283 16.9966 71.5102 17.4729C71.7929 17.9492 72.0114 18.462 72.1678 19.0119C72.3235 19.5618 72.4017 20.1334 72.4017 20.7267C72.4017 21.3208 72.3227 21.8924 72.1678 22.4423C72.0121 22.9923 71.7929 23.5058 71.5102 23.9813C71.2283 24.4577 70.8898 24.8906 70.4964 25.2826C70.1021 25.6737 69.6645 26.0091 69.182 26.2879C68.7002 26.5667 68.1821 26.7836 67.6298 26.9362C67.0768 27.0888 66.5036 27.1655 65.9096 27.1655C65.3101 27.1655 64.7354 27.0888 64.1854 26.9362C63.6355 26.7836 63.1197 26.5667 62.6371 26.2879C62.1546 26.0091 61.717 25.6737 61.3235 25.2826C60.9293 24.8914 60.5916 24.4577 60.3089 23.9813C60.027 23.505 59.8078 22.9923 59.6521 22.4423C59.4972 21.8932 59.4189 21.3208 59.4189 20.7267ZM62.3033 20.7267C62.3033 21.2147 62.4001 21.6748 62.5938 22.107C62.7874 22.5391 63.0492 22.9171 63.3784 23.2401C63.7076 23.5639 64.0894 23.8179 64.5255 24.003C64.9608 24.1881 65.4216 24.2811 65.9096 24.2811C66.3921 24.2811 66.8522 24.1881 67.2898 24.003C67.7274 23.8179 68.1116 23.5639 68.4407 23.2401C68.7699 22.9171 69.0317 22.5391 69.2261 22.107C69.4198 21.6748 69.5166 21.2147 69.5166 20.7267C69.5166 20.2388 69.4198 19.7787 69.2261 19.3465C69.0317 18.9143 68.7707 18.5379 68.4407 18.2172C68.1108 17.8966 67.7282 17.6425 67.2898 17.4543C66.8514 17.2661 66.3913 17.1716 65.9096 17.1716C65.4216 17.1716 64.96 17.2661 64.5255 17.4543C64.0894 17.6425 63.7076 17.8966 63.3784 18.2172C63.0492 18.5379 62.7874 18.9135 62.5938 19.3465C62.4001 19.7795 62.3033 20.2388 62.3033 20.7267Z" fill="#25265D"/>
<path d="M86.794 27.0508H83.9282L77.8868 18.3109V27.0508H75.0117V14.4127H77.8512C78.1331 14.4127 78.3833 14.4537 78.6009 14.5358C78.8186 14.6179 78.9859 14.745 79.1036 14.9154L83.5216 21.3889C83.5866 21.4834 83.6416 21.5857 83.6896 21.6972C83.7369 21.8087 83.7779 21.9133 83.8128 22.0101C83.8484 22.1069 83.8747 22.1906 83.8926 22.2611C83.9096 22.3315 83.9189 22.3757 83.9189 22.3935V14.4127H86.794V27.0508Z" fill="#25265D"/>
<path d="M97.8533 27.0508H89.4395V14.4127H97.8533V17.1112H92.3231V19.3248H96.8208V22.0233H92.3231V24.3515H97.8533V27.0508Z" fill="#25265D"/>
<path d="M104.696 17.1817C104.543 17.1817 104.395 17.1949 104.251 17.2212C104.107 17.2476 103.979 17.2902 103.867 17.349C103.755 17.4079 103.666 17.4815 103.598 17.5698C103.53 17.6581 103.497 17.7642 103.497 17.8873C103.497 18.0763 103.544 18.2227 103.638 18.3288C103.732 18.4341 103.875 18.5271 104.066 18.6061C104.257 18.6859 104.495 18.7649 104.78 18.8446C105.065 18.9236 105.399 19.0282 105.781 19.1576C106.269 19.3218 106.715 19.5239 107.118 19.7617C107.521 19.9995 107.865 20.2791 108.15 20.5997C108.435 20.9204 108.657 21.2798 108.815 21.6802C108.974 22.0799 109.053 22.5268 109.053 23.0209C109.053 23.6328 108.924 24.192 108.665 24.7009C108.407 25.2098 108.062 25.6466 107.629 26.0107C107.197 26.3755 106.699 26.6589 106.134 26.8619C105.57 27.0648 104.985 27.1663 104.378 27.1663C103.862 27.1663 103.369 27.0896 102.901 26.937C102.433 26.7836 102.005 26.5706 101.614 26.2972C101.223 26.0238 100.881 25.6977 100.587 25.3182C100.293 24.9395 100.063 24.5266 99.8984 24.079L100.816 23.55C100.963 23.4679 101.121 23.402 101.288 23.3517C101.455 23.3021 101.625 23.2765 101.795 23.2765C102.047 23.2765 102.275 23.3292 102.478 23.4353C102.681 23.5414 102.88 23.6561 103.074 23.7792C103.268 23.9031 103.468 24.0178 103.674 24.1231C103.88 24.2292 104.114 24.2819 104.378 24.2819C104.555 24.2819 104.748 24.254 104.956 24.1982C105.165 24.1425 105.36 24.0619 105.539 23.9558C105.718 23.8505 105.866 23.7196 105.983 23.5639C106.101 23.4082 106.161 23.227 106.161 23.0217C106.161 22.8273 106.106 22.6685 105.997 22.5454C105.888 22.4222 105.742 22.3146 105.556 22.2239C105.372 22.1326 105.158 22.0489 104.917 21.9722C104.676 21.8955 104.423 21.8049 104.159 21.6988C103.724 21.5346 103.296 21.3549 102.872 21.1605C102.448 20.9661 102.069 20.7268 101.734 20.4417C101.399 20.1567 101.127 19.8097 100.918 19.4008C100.709 18.9918 100.605 18.4845 100.605 17.8796C100.605 17.3095 100.721 16.8022 100.953 16.3584C101.185 15.9146 101.492 15.5397 101.874 15.2338C102.256 14.9278 102.693 14.6947 103.183 14.5328C103.675 14.3709 104.179 14.2904 104.696 14.2904C105.072 14.2904 105.438 14.3539 105.794 14.4801C106.15 14.6064 106.487 14.7706 106.804 14.9735C107.122 15.1764 107.418 15.4073 107.695 15.666C107.971 15.9246 108.221 16.1895 108.445 16.4598L107.554 17.2096C107.377 17.363 107.194 17.4714 107.003 17.5357C106.811 17.6 106.599 17.6325 106.363 17.6325C106.175 17.6325 106.011 17.6093 105.869 17.562C105.728 17.5155 105.596 17.4644 105.473 17.4079C105.349 17.3521 105.226 17.3002 105.102 17.2537C104.979 17.2057 104.844 17.1817 104.696 17.1817Z" fill="#25265D"/>
<path d="M119.901 27.0508H111.487V14.4127H119.901V17.1112H114.372V19.3248H118.869V22.0233H114.372V24.3515H119.901V27.0508Z" fill="#25265D"/>
<path d="M126.993 14.4127H129.48L135.001 27.0508H133.14C132.946 27.0508 132.76 27.026 132.58 26.9757C132.4 26.9253 132.235 26.8517 132.081 26.7549C131.929 26.6581 131.791 26.5404 131.667 26.4017C131.544 26.2639 131.443 26.1066 131.367 25.93L130.749 24.5274H125.722L125.123 25.93C125.052 26.0888 124.953 26.236 124.828 26.3708C124.702 26.5063 124.558 26.6256 124.399 26.7278C124.241 26.8301 124.07 26.9098 123.888 26.9656C123.706 27.0214 123.523 27.0492 123.341 27.0492H121.472L126.993 14.4127ZM126.877 21.9094H129.576L128.473 19.2636C128.421 19.1397 128.38 19.0251 128.35 18.9197C128.321 18.8136 128.298 18.7199 128.28 18.637C128.256 18.5433 128.241 18.455 128.235 18.3729C128.223 18.455 128.206 18.5464 128.182 18.6463C128.165 18.7284 128.14 18.8229 128.107 18.929C128.075 19.0343 128.035 19.1467 127.989 19.2644L126.877 21.9094Z" fill="#25265D"/>
<path d="M62.7204 33.4903C62.5849 33.3927 62.4478 33.3137 62.3091 33.2564C62.1705 33.1983 62.0396 33.1696 61.9188 33.1696C61.7554 33.1696 61.602 33.1921 61.4579 33.2378C61.3139 33.2827 61.1876 33.3455 61.0776 33.4245C60.9684 33.505 60.8817 33.5995 60.8174 33.7087C60.7531 33.8179 60.7206 33.9372 60.7206 34.065C60.7206 34.2145 60.7454 34.3415 60.7942 34.4461C60.8422 34.5506 60.9204 34.6436 61.0281 34.7249C61.1357 34.8055 61.2751 34.8837 61.4471 34.9565C61.619 35.0293 61.8282 35.1075 62.0752 35.192C62.1968 35.24 62.3184 35.2865 62.4424 35.3298C62.5663 35.3732 62.6863 35.4197 62.8048 35.4708C62.9226 35.5204 63.0395 35.5761 63.1534 35.635C63.268 35.6939 63.3772 35.7636 63.481 35.8441C64.0054 36.2438 64.2679 36.7821 64.2679 37.4598C64.2679 37.7998 64.199 38.1112 64.0596 38.3923C63.9202 38.6743 63.7327 38.9167 63.4973 39.1189C63.2611 39.3226 62.9884 39.4806 62.6794 39.5937C62.3703 39.7067 62.0474 39.7633 61.7104 39.7633C61.0405 39.7633 60.4797 39.5627 60.0281 39.1638C59.9375 39.084 59.8577 39.0042 59.7888 38.9214C59.7199 38.8408 59.6595 38.761 59.6091 38.6851C59.5588 38.6077 59.5162 38.5387 59.4813 38.476C59.4465 38.4133 59.4186 38.3614 59.3984 38.3195L59.6486 38.1894C59.7803 38.1096 59.9174 38.0701 60.0599 38.0701C60.2853 38.0701 60.4766 38.1515 60.6331 38.3149L60.7159 38.3823C60.8476 38.4938 60.9948 38.5798 61.1559 38.6402C61.317 38.7006 61.5021 38.7308 61.7104 38.7308C61.8808 38.7308 62.0559 38.7037 62.2371 38.6479C62.4176 38.5929 62.5818 38.5116 62.7289 38.4055C62.8761 38.2994 62.9977 38.1677 63.093 38.0097C63.189 37.8517 63.2363 37.6689 63.2363 37.4598C63.2363 37.2584 63.1913 37.0919 63.1007 36.9602C63.0101 36.8278 62.8931 36.7155 62.7491 36.621C62.605 36.5273 62.4431 36.4467 62.265 36.3809C62.0861 36.315 61.9095 36.2477 61.736 36.1772C61.4788 36.0765 61.2287 35.9727 60.9831 35.865C60.7384 35.7574 60.52 35.6265 60.3271 35.4723C60.1342 35.3174 59.9801 35.1284 59.8639 34.9046C59.7478 34.6808 59.6889 34.4027 59.6889 34.0689C59.6889 33.7629 59.7524 33.4911 59.8794 33.251C60.0065 33.0109 60.1737 32.8095 60.3821 32.6445C60.5904 32.4788 60.8282 32.3533 61.0954 32.2673C61.3627 32.1806 61.6376 32.1364 61.9188 32.1364C62.124 32.1364 62.327 32.1713 62.5283 32.241C62.7297 32.3107 62.9187 32.399 63.0961 32.5066C63.2734 32.6143 63.4322 32.732 63.5755 32.8614C63.718 32.9892 63.8358 33.1108 63.9295 33.2254L63.6638 33.4237C63.5182 33.5484 63.3493 33.6111 63.1588 33.6111C62.9946 33.6119 62.8482 33.5724 62.7204 33.4903Z" fill="#25265D"/>
<path d="M67.3291 35.9502C67.3291 35.6001 67.374 35.2617 67.4646 34.9371C67.5553 34.6126 67.6838 34.309 67.8504 34.0255C68.0169 33.7428 68.2159 33.4864 68.4468 33.2548C68.6776 33.024 68.9339 32.825 69.2174 32.6584C69.5001 32.4919 69.8045 32.3633 70.1291 32.2735C70.4536 32.1829 70.7913 32.1372 71.1421 32.1372C71.493 32.1372 71.8299 32.1829 72.1545 32.2735C72.479 32.3633 72.7834 32.4919 73.0661 32.6584C73.3496 32.825 73.606 33.024 73.8368 33.2548C74.0676 33.4864 74.2666 33.7428 74.4339 34.0255C74.6005 34.309 74.729 34.6126 74.8189 34.9371C74.9095 35.2617 74.9544 35.5994 74.9544 35.9502C74.9544 36.3011 74.9095 36.6396 74.8189 36.9641C74.729 37.2886 74.6005 37.5922 74.4339 37.8749C74.2666 38.1584 74.0676 38.4156 73.8368 38.6464C73.606 38.8772 73.3496 39.0762 73.0661 39.2428C72.7834 39.4093 72.479 39.5379 72.1545 39.6285C71.8299 39.7183 71.493 39.764 71.1421 39.764C70.6139 39.764 70.1198 39.6633 69.6574 39.4643C69.1957 39.2645 68.7922 38.9918 68.4468 38.6464C68.1013 38.3009 67.8287 37.8974 67.6288 37.4358C67.429 36.9726 67.3291 36.4785 67.3291 35.9502ZM68.36 35.9502C68.36 36.3359 68.4336 36.6976 68.5792 37.033C68.7248 37.3707 68.9239 37.6643 69.1756 37.9168C69.4273 38.1685 69.7224 38.3668 70.0586 38.5139C70.3955 38.6595 70.7564 38.7324 71.1421 38.7324C71.5271 38.7324 71.888 38.6588 72.2249 38.5139C72.5619 38.3675 72.8562 38.1693 73.1079 37.9168C73.3596 37.665 73.5587 37.3707 73.7051 37.033C73.8507 36.6969 73.9235 36.3359 73.9235 35.9502C73.9235 35.5653 73.8507 35.2036 73.7051 34.8682C73.5595 34.5305 73.3604 34.2369 73.1079 33.9844C72.857 33.7327 72.5619 33.5344 72.2249 33.3881C71.888 33.2417 71.5271 33.1689 71.1421 33.1689C70.7564 33.1689 70.3955 33.2424 70.0586 33.3881C69.7216 33.5337 69.4273 33.7319 69.1756 33.9844C68.9239 34.2362 68.7256 34.5305 68.5792 34.8682C68.4336 35.2036 68.36 35.5653 68.36 35.9502Z" fill="#25265D"/>
<path d="M78.5576 39.6851V32.2216H79.5885V38.6534H82.8129V39.6851H78.5576Z" fill="#25265D"/>
<path d="M87.0827 36.7689C87.0827 37.0392 87.1338 37.2948 87.236 37.5334C87.339 37.7743 87.4785 37.9826 87.6582 38.1615C87.8371 38.3405 88.0462 38.4814 88.2863 38.5837C88.5264 38.6859 88.7812 38.737 89.0515 38.737C89.3219 38.737 89.5775 38.6859 89.8168 38.5837C90.0561 38.4814 90.2652 38.3412 90.4449 38.1615C90.6231 37.9834 90.764 37.7743 90.8671 37.5334C90.9693 37.2941 91.0204 37.0385 91.0204 36.7689V32.2216H92.0513V36.7689C92.0513 37.0462 92.0157 37.3126 91.9444 37.5682C91.8732 37.8231 91.7725 38.0616 91.6424 38.2839C91.5122 38.5062 91.355 38.7084 91.1722 38.8912C90.9879 39.0724 90.785 39.2296 90.5634 39.359C90.3411 39.4891 90.1018 39.5906 89.847 39.661C89.5922 39.7323 89.3257 39.7687 89.0492 39.7687C88.775 39.7687 88.5109 39.7323 88.2553 39.661C88.0005 39.5906 87.7619 39.4891 87.5404 39.359C87.3181 39.2288 87.1152 39.0724 86.9309 38.8912C86.7481 38.7084 86.5908 38.5062 86.4607 38.2839C86.3306 38.0616 86.2299 37.8223 86.1586 37.5651C86.0874 37.308 86.0518 37.0423 86.0518 36.7689V32.2216H87.0827V36.7689Z" fill="#25265D"/>
<path d="M95.1816 33.2478V32.2162H100.854V33.2478H98.5354V39.685H97.5045V33.2478H95.1816Z" fill="#25265D"/>
<path d="M105.341 32.2216H104.311V39.6858H105.341V32.2216Z" fill="#25265D"/>
<path d="M109.128 35.9502C109.128 35.6001 109.173 35.2617 109.263 34.9371C109.353 34.6126 109.483 34.309 109.649 34.0255C109.816 33.7428 110.015 33.4864 110.246 33.2548C110.476 33.024 110.734 32.825 111.016 32.6584C111.299 32.4919 111.603 32.3633 111.928 32.2735C112.252 32.1829 112.589 32.1372 112.942 32.1372C113.292 32.1372 113.63 32.1829 113.954 32.2735C114.279 32.3633 114.583 32.4919 114.866 32.6584C115.149 32.825 115.406 33.024 115.636 33.2548C115.867 33.4864 116.066 33.7428 116.234 34.0255C116.4 34.309 116.529 34.6126 116.618 34.9371C116.709 35.2617 116.754 35.5994 116.754 35.9502C116.754 36.3011 116.709 36.6396 116.618 36.9641C116.529 37.2886 116.4 37.5922 116.234 37.8749C116.066 38.1584 115.867 38.4156 115.636 38.6464C115.406 38.8772 115.149 39.0762 114.866 39.2428C114.583 39.4093 114.279 39.5379 113.954 39.6285C113.63 39.7183 113.293 39.764 112.942 39.764C112.414 39.764 111.919 39.6633 111.457 39.4643C110.995 39.2645 110.591 38.9918 110.246 38.6464C109.901 38.3009 109.628 37.8974 109.428 37.4358C109.229 36.9742 109.128 36.4785 109.128 35.9502ZM110.159 35.9502C110.159 36.3359 110.232 36.6976 110.378 37.033C110.524 37.3707 110.722 37.6643 110.974 37.9168C111.227 38.1693 111.52 38.3668 111.857 38.5139C112.194 38.6595 112.554 38.7324 112.941 38.7324C113.326 38.7324 113.687 38.6588 114.023 38.5139C114.361 38.3675 114.654 38.1693 114.907 37.9168C115.158 37.665 115.357 37.3707 115.503 37.033C115.649 36.6969 115.722 36.3359 115.722 35.9502C115.722 35.5653 115.649 35.2036 115.503 34.8682C115.358 34.5305 115.158 34.2369 114.907 33.9844C114.655 33.7327 114.361 33.5344 114.023 33.3881C113.686 33.2424 113.326 33.1689 112.941 33.1689C112.554 33.1689 112.194 33.2424 111.857 33.3881C111.521 33.5337 111.227 33.7319 110.974 33.9844C110.722 34.2369 110.524 34.5305 110.378 34.8682C110.232 35.2036 110.159 35.5653 110.159 35.9502Z" fill="#25265D"/>
<path d="M126.658 39.6851H125.82L121.555 33.8567C121.526 33.8188 121.503 33.7762 121.484 33.7289C121.465 33.6824 121.448 33.6352 121.435 33.5856C121.421 33.5345 121.409 33.4787 121.398 33.4191V39.6851H120.367V32.2209H121.101C121.268 32.2209 121.414 32.2457 121.538 32.2945C121.663 32.3433 121.762 32.4176 121.836 32.5183L125.455 37.5024C125.549 37.6388 125.606 37.8099 125.627 38.0183V32.2217H126.658V39.6851Z" fill="#25265D"/>
<path d="M133.424 33.4903C133.287 33.3927 133.15 33.3137 133.011 33.2564C132.873 33.1983 132.743 33.1696 132.621 33.1696C132.458 33.1696 132.304 33.1921 132.16 33.2378C132.015 33.2827 131.889 33.3455 131.78 33.4245C131.67 33.505 131.584 33.5995 131.52 33.7087C131.455 33.8179 131.423 33.9372 131.423 34.065C131.423 34.2145 131.448 34.3415 131.496 34.4461C131.545 34.5506 131.624 34.6436 131.73 34.7249C131.839 34.8055 131.978 34.8837 132.15 34.9565C132.322 35.0293 132.531 35.1075 132.778 35.192C132.899 35.24 133.022 35.2865 133.145 35.3298C133.269 35.3732 133.389 35.4197 133.507 35.4708C133.626 35.5204 133.743 35.5761 133.857 35.635C133.97 35.6939 134.08 35.7636 134.185 35.8441C134.709 36.2438 134.972 36.7821 134.972 37.4598C134.972 37.7998 134.902 38.1112 134.763 38.3923C134.623 38.6743 134.437 38.9167 134.2 39.1189C133.963 39.3226 133.692 39.4806 133.382 39.5937C133.073 39.7067 132.75 39.7633 132.414 39.7633C131.743 39.7633 131.182 39.5627 130.73 39.1638C130.641 39.084 130.561 39.0042 130.491 38.9214C130.421 38.8408 130.362 38.761 130.311 38.6851C130.262 38.6077 130.219 38.5387 130.184 38.476C130.15 38.4133 130.122 38.3614 130.102 38.3195L130.351 38.1894C130.483 38.1096 130.62 38.0701 130.762 38.0701C130.988 38.0701 131.179 38.1515 131.335 38.3149L131.418 38.3823C131.55 38.4938 131.696 38.5798 131.857 38.6402C132.019 38.7006 132.204 38.7308 132.413 38.7308C132.583 38.7308 132.757 38.7037 132.939 38.6479C133.119 38.5929 133.283 38.5116 133.431 38.4055C133.578 38.2994 133.7 38.1677 133.796 38.0097C133.891 37.8517 133.939 37.6689 133.939 37.4598C133.939 37.2584 133.894 37.0919 133.804 36.9602C133.714 36.8278 133.596 36.7155 133.452 36.621C133.308 36.5273 133.146 36.4467 132.968 36.3809C132.79 36.315 132.613 36.2477 132.439 36.1772C132.182 36.0765 131.932 35.9727 131.686 35.865C131.442 35.7574 131.222 35.6265 131.03 35.4723C130.837 35.3174 130.683 35.1284 130.566 34.9046C130.449 34.6808 130.391 34.4027 130.391 34.0689C130.391 33.7629 130.455 33.4911 130.582 33.251C130.708 33.0109 130.875 32.8095 131.083 32.6445C131.292 32.4788 131.53 32.3533 131.797 32.2673C132.065 32.1806 132.338 32.1364 132.62 32.1364C132.826 32.1364 133.029 32.1713 133.23 32.241C133.431 32.3107 133.62 32.399 133.797 32.5066C133.973 32.6143 134.134 32.732 134.276 32.8614C134.418 32.9892 134.537 33.1108 134.63 33.2254L134.365 33.4237C134.219 33.5484 134.05 33.6111 133.86 33.6111C133.698 33.6119 133.551 33.5724 133.424 33.4903Z" fill="#25265D"/>
<path d="M27.561 7.33965C27.4138 7.61074 27.2744 7.89112 27.1482 8.1715C27.0181 8.44878 26.9003 8.72607 26.7911 9.01187C25.8834 11.3827 25.5999 13.9898 26.0569 16.5342L26.1335 16.9702L26.2815 17.8021L26.4317 18.6363L28.5137 30.3906L29.3393 35.0502L29.4896 35.8844L29.6368 36.7101L29.7785 37.5117C31.0317 37.2848 32.1997 36.7356 33.1702 35.9138C34.2584 35.003 35.019 33.8172 35.414 32.526C35.6712 31.7081 35.7765 30.8476 35.7301 29.9863C35.706 29.5379 35.6418 29.0964 35.5325 28.6564L35.3529 27.6449L34.6155 23.4934L34.2205 21.2519L33.9463 19.7098L33.1586 15.2779C32.8581 13.5847 33.2004 11.8746 34.0842 10.4595C34.2313 10.2116 34.4002 9.97849 34.583 9.75465C34.7658 9.52461 34.9695 9.30929 35.184 9.10637C35.2847 9.00568 35.39 8.91196 35.5 8.82056C38.2303 6.52019 42.2997 6.73241 44.7828 9.21557C44.9184 9.35112 45.0516 9.49596 45.1748 9.64312C47.4395 12.3331 47.2598 16.3165 44.8859 18.8082C45.9911 21.2286 46.5844 23.8272 46.6549 26.4405C47.4898 25.9889 48.2799 25.4584 49.0087 24.8418C54.9153 19.8608 55.6852 10.8932 50.7011 4.98351C50.4478 4.67679 50.179 4.38479 49.8987 4.10441C44.8038 -0.991265 36.4457 -1.43352 30.8427 3.29037C29.4927 4.42894 28.3867 5.81149 27.561 7.33965Z" fill="#CA2030"/>
<path d="M3.28775 49.0167C3.54722 49.3234 3.81598 49.6146 4.09559 49.895C9.18817 54.9883 17.5493 55.4283 23.1492 50.7067C24.4992 49.5681 25.6053 48.1856 26.4309 46.6574C26.5781 46.3863 26.7167 46.106 26.8437 45.8264C26.9731 45.5498 27.0908 45.2656 27.2031 44.9829C28.1062 42.6113 28.3889 40.0042 27.9351 37.4629L27.8584 37.0268L27.7112 36.195L24.2072 16.5636C22.5644 17.0028 21.013 17.8695 19.7273 19.156C19.2378 19.6455 18.8071 20.176 18.4385 20.7337C18.1759 21.5563 18.0411 22.1976 18.1139 23.2928C18.1867 24.3887 20.8333 38.7192 20.8333 38.7192C21.1315 40.4154 20.7892 42.1256 19.9078 43.5384C19.7575 43.7831 19.5925 44.0194 19.409 44.2432C19.2231 44.4763 19.0225 44.6948 18.8048 44.8946C18.7049 44.9953 18.598 45.089 18.4888 45.1812C15.7555 47.4846 11.6891 47.2685 9.20288 44.7823C9.06734 44.6467 8.93722 44.5058 8.81407 44.3578C6.54932 41.6679 6.72901 37.6844 9.10297 35.1927C7.99693 32.7715 7.40441 30.1676 7.33625 27.5519C6.50207 28.002 5.71205 28.5395 4.98398 29.1552C-0.925736 34.1332 -1.69253 43.1039 3.28775 49.0167Z" fill="#EA118D"/>
<path d="M39.719 14.2725C40.9667 15.5203 41.9899 16.9028 42.7915 18.3775C42.9302 18.6277 43.0572 18.8779 43.1811 19.1327C43.3082 19.3891 43.4228 19.6454 43.532 19.908C44.5288 22.2316 45.0098 24.7233 44.9804 27.2127C44.9773 27.5163 44.968 27.8199 44.9448 28.1204C44.9277 28.4271 44.9006 28.7308 44.8681 29.0344C44.4227 32.9419 42.7094 36.7317 39.719 39.7214C36.7292 42.7111 32.9425 44.4275 29.0381 44.8698C29.6368 43.0628 29.9087 41.145 29.8165 39.2133L30.076 39.1661C31.6212 38.8896 33.0665 38.2111 34.2515 37.2019C36.239 35.5335 37.3713 33.062 37.4186 30.5199L37.4039 29.6734L37.3891 28.816L37.0615 26.9726V26.9664L35.72 20.0745L34.8146 14.982C34.576 13.6521 34.8765 12.2959 35.6077 11.1929C37.0855 11.9984 38.4719 13.0247 39.719 14.2725Z" fill="#25265D"/>
<path d="M14.2695 39.7246C13.0218 38.4776 11.9986 37.0942 11.1962 35.6195C11.0575 35.3686 10.9313 35.1184 10.8074 34.8643C10.6803 34.6072 10.5657 34.3508 10.4565 34.0883C9.45966 31.7647 8.97868 29.273 9.00811 26.7836C9.01121 26.48 9.0205 26.1764 9.04374 25.8759C9.06155 25.5691 9.08789 25.2647 9.12042 24.9611C9.56655 21.0536 11.2798 17.2646 14.2695 14.2741C17.2593 11.2836 21.046 9.56799 24.9504 9.12573C24.3517 10.9327 24.0798 12.8505 24.172 14.7822L23.9125 14.8294C22.3673 15.1067 20.922 15.7844 19.737 16.7936C17.7495 18.462 16.6172 20.9335 16.5699 23.4756L16.5846 24.3221L16.5993 25.1803L16.9262 27.0229V27.0291L18.2677 33.9202L19.1731 39.0128C19.4117 40.3426 19.1112 41.6996 18.38 42.8026C16.903 41.9986 15.5173 40.9716 14.2695 39.7246Z" fill="#25265D"/>
</svg>
