<svg width="15" height="19" viewBox="0 0 15 19" fill="none" xmlns="http://www.w3.org/2000/svg">
<path d="M13.294 18.7714H1.56305C0.756547 18.7714 0.0966797 18.1115 0.0966797 17.305V2.05475C0.0966797 1.24825 0.756547 0.588379 1.56305 0.588379H7.53119C7.92711 0.588379 8.2937 0.735016 8.57231 1.01363L14.3352 6.77647C14.6138 7.05508 14.7604 7.42167 14.7604 7.8176V17.305C14.7604 18.1115 14.1005 18.7714 13.294 18.7714ZM1.56305 1.17493C1.07915 1.17493 0.683229 1.57085 0.683229 2.05475V17.305C0.683229 17.7889 1.07915 18.1848 1.56305 18.1848H13.294C13.7779 18.1848 14.1739 17.7889 14.1739 17.305V7.8176C14.1739 7.58298 14.0859 7.36302 13.9099 7.20172L8.14706 1.43887C7.98576 1.26291 7.76581 1.17493 7.53119 1.17493H1.56305Z" fill="#1D409D"/>
<path d="M9.58389 14.3724H8.3668L7.69227 11.7329C7.66294 11.6449 7.61895 11.4396 7.56029 11.1464C7.50164 10.8531 7.45765 10.6478 7.45765 10.5598C7.44298 10.6771 7.41366 10.8824 7.355 11.161C7.29635 11.4396 7.25236 11.6303 7.22303 11.7476L6.5485 14.3724H5.33141L4.05566 9.34271H5.09679L5.74199 12.0848C5.8593 12.5981 5.93262 13.0233 5.99128 13.4046C6.00594 13.2726 6.03527 13.0673 6.07926 12.8034C6.12325 12.5394 6.1819 12.3194 6.21123 12.1728L6.94442 9.35738H7.95621L8.6894 12.1728C8.71873 12.3048 8.76272 12.4954 8.80671 12.7447C8.8507 12.994 8.89469 13.2286 8.92402 13.4046C8.95335 13.2286 8.98268 13.0086 9.04133 12.73C9.09998 12.4514 9.14398 12.2461 9.1733 12.0848L9.81851 9.34271H10.8596L9.58389 14.3724Z" fill="#1D409D"/>
</svg>
