<svg width="53" height="53" viewBox="0 0 53 53" fill="none" xmlns="http://www.w3.org/2000/svg">
<g clip-path="url(#clip0_213_31)">
<path d="M26.5551 0.981247C12.3183 0.981247 0.777344 12.5222 0.777344 26.759C0.777344 40.9959 12.3183 52.5379 26.5551 52.5379C40.792 52.5379 52.3329 40.9959 52.3329 26.759C52.3329 12.5222 40.792 0.981247 26.5551 0.981247ZM26.5551 48.3758C14.6909 48.3758 5.07364 38.7575 5.07364 26.8933C5.07364 15.0291 14.6909 5.4118 26.5551 5.4118C38.4193 5.4118 48.0366 15.0291 48.0366 26.8933C48.0366 38.7575 38.4193 48.3758 26.5551 48.3758Z" fill="#25265D"/>
<path d="M25.2471 35.2743C23.3965 35.2743 22.4717 36.2248 22.4717 38.1249C22.4717 39.0432 22.7112 39.7575 23.1892 40.2666C23.6671 40.7757 24.3535 41.0324 25.2471 41.0324C26.1418 41.0324 26.8292 40.7703 27.3136 40.2483C27.798 39.7263 28.0418 39.0185 28.0418 38.1249C28.0418 37.2184 27.8023 36.5159 27.3243 36.0186C26.8464 35.5213 26.1536 35.2743 25.2471 35.2743Z" fill="#25265D"/>
<path d="M32.2897 14.2976C30.8418 13.0893 28.8849 12.4846 26.4188 12.4846C23.9667 12.4846 21.6467 12.9926 19.4523 13.9947C18.2214 14.549 18.7735 15.8056 18.7757 15.8121L19.2676 16.8421C19.2676 16.8421 19.8487 17.827 21.101 17.3426C21.1139 17.3383 21.1182 17.3405 21.13 17.3351C21.6714 17.1085 22.2191 16.898 22.7755 16.7121C23.7948 16.3727 24.9022 16.202 26.0987 16.202C27.4198 16.202 28.4327 16.4855 29.1383 17.0516C29.844 17.6176 30.1952 18.4296 30.1952 19.4876C30.1952 20.3941 29.9772 21.1738 29.5433 21.829C29.1093 22.4842 28.1437 23.4026 26.6465 24.5851C25.3887 25.5668 24.5069 26.5174 24.0032 27.4357C23.4994 28.3551 23.2481 29.5076 23.2481 30.8921C23.1998 31.8996 24.4833 32.1004 24.4833 32.1004H25.2588C25.2588 32.1004 26.7346 32.109 26.9601 30.8373C26.9633 30.8201 26.9687 30.8147 26.9719 30.7976C27.0235 29.992 27.2082 29.325 27.5423 28.8148C27.9386 28.2101 28.7237 27.4486 29.8934 26.5292C31.265 25.4594 32.2306 24.5905 32.7902 23.9235C33.3498 23.2565 33.7697 22.5551 34.0469 21.8183C34.324 21.0815 34.4625 20.2416 34.4625 19.2974C34.4604 17.174 33.7375 15.506 32.2897 14.2976Z" fill="#25265D"/>
</g>
<defs>
<clipPath id="clip0_213_31">
<rect width="51.5556" height="51.5556" fill="white" transform="translate(0.777344 0.962982)"/>
</clipPath>
</defs>
</svg>
