<svg width="51" height="56" viewBox="0 0 51 56" fill="none" xmlns="http://www.w3.org/2000/svg">
<path d="M27.799 9.41977H22.9213C21.8931 9.41977 21.0596 10.2533 21.0596 11.2815C21.0596 12.3097 21.8931 13.1432 22.9213 13.1432H27.799C28.8272 13.1432 29.6608 12.3097 29.6608 11.2815C29.6608 10.2533 28.8272 9.41977 27.799 9.41977Z" fill="#25265D"/>
<path d="M44.6101 55.963H7.7293C6.20509 55.958 4.74471 55.3504 3.66692 54.2726C2.58914 53.1948 1.98147 51.7344 1.97656 50.2102V5.86384C1.98147 4.33963 2.58914 2.87925 3.66692 1.80146C4.74471 0.723675 6.20509 0.116008 7.7293 0.111099H44.6101C46.1344 0.116008 47.5947 0.723675 48.6725 1.80146C49.7503 2.87925 50.358 4.33963 50.3629 5.86384V50.2102C50.358 51.7344 49.7503 53.1948 48.6725 54.2726C47.5947 55.3504 46.1344 55.958 44.6101 55.963ZM7.7293 3.83456C7.1911 3.83456 6.67495 4.04836 6.29438 4.42892C5.91382 4.80948 5.70002 5.32564 5.70002 5.86384V50.2102C5.70002 50.7484 5.91382 51.2646 6.29438 51.6451C6.67495 52.0257 7.1911 52.2395 7.7293 52.2395H44.6101C45.1483 52.2395 45.6645 52.0257 46.0451 51.6451C46.4256 51.2646 46.6394 50.7484 46.6394 50.2102V5.86384C46.6394 5.32564 46.4256 4.80948 46.0451 4.42892C45.6645 4.04836 45.1483 3.83456 44.6101 3.83456H7.7293Z" fill="#25265D"/>
<path d="M5.92405 7.55803H2.2006C1.17239 7.55803 0.338867 8.39155 0.338867 9.41976C0.338867 10.448 1.17239 11.2815 2.2006 11.2815H5.92405C6.95226 11.2815 7.78578 10.448 7.78578 9.41976C7.78578 8.39155 6.95226 7.55803 5.92405 7.55803Z" fill="#25265D"/>
<path d="M5.92405 26.1753H2.2006C1.17239 26.1753 0.338867 27.0088 0.338867 28.037C0.338867 29.0652 1.17239 29.8987 2.2006 29.8987H5.92405C6.95226 29.8987 7.78578 29.0652 7.78578 28.037C7.78578 27.0088 6.95226 26.1753 5.92405 26.1753Z" fill="#25265D"/>
<path d="M5.92405 44.7926H2.2006C1.17239 44.7926 0.338867 45.6261 0.338867 46.6543C0.338867 47.6825 1.17239 48.5161 2.2006 48.5161H5.92405C6.95226 48.5161 7.78578 47.6825 7.78578 46.6543C7.78578 45.6261 6.95226 44.7926 5.92405 44.7926Z" fill="#25265D"/>
<path d="M50.3811 33.6222H36.3995C35.7908 33.6222 35.1879 33.5023 34.6255 33.2694C34.0631 33.0364 33.5521 32.6949 33.1216 32.2645C32.6911 31.834 32.3497 31.323 32.1167 30.7605C31.8837 30.1981 31.7638 29.5953 31.7638 28.9865V27.1248C31.7589 26.5129 31.8752 25.9061 32.1059 25.3394C32.3367 24.7726 32.6774 24.2572 33.1084 23.8228C33.5393 23.3884 34.052 23.0436 34.6169 22.8083C35.1817 22.573 35.7876 22.4519 36.3995 22.4519H50.3811V33.6222ZM36.3995 26.1753C36.1576 26.1753 35.9255 26.2714 35.7545 26.4425C35.5834 26.6136 35.4873 26.8456 35.4873 27.0876V28.9493C35.4873 29.1912 35.5834 29.4233 35.7545 29.5944C35.9255 29.7654 36.1576 29.8616 36.3995 29.8616H46.6576V26.1753H36.3995Z" fill="#25265D"/>
</svg>
