<svg width="66" height="60" viewBox="0 0 66 60" fill="none" xmlns="http://www.w3.org/2000/svg">
<path fill-rule="evenodd" clip-rule="evenodd" d="M0 44.3567H5.95798H7.94397H12.5119H18.2731C18.2731 43.6947 18.2616 43.0442 18.2401 42.4037C18.2171 41.7647 18.1841 41.1357 18.141 40.5168C17.9199 40.4278 17.5882 40.3402 17.1473 40.2512C16.7065 40.1636 16.2096 40.0745 15.6582 39.9855C15.1053 39.8979 14.5424 39.8204 13.9694 39.7543C13.3965 39.6882 12.9111 39.6552 12.5133 39.6552V39.3249H12.5119V5.03319H12.5133V4.70147C12.9111 4.70147 13.3835 4.66844 13.9364 4.60239C14.4878 4.5349 15.0393 4.45879 15.5921 4.36976C16.1435 4.28216 16.639 4.19456 17.0813 4.10553C17.5221 4.0165 17.8524 3.9289 18.0735 3.83987C18.0735 3.22239 18.0836 2.59342 18.1066 1.95296C18.1281 1.31394 18.1611 0.661997 18.2056 0H12.5119H12.0495H11.5857H7.94397H5.95798H0.132112C0.0430801 0.661997 0.0430801 1.28091 0.132112 1.85388C0.219708 2.42684 0.472445 2.91221 0.893194 3.30999C1.31251 3.70776 1.90845 4.02799 2.68102 4.27067C3.45215 4.51336 4.50187 4.65696 5.82586 4.70004V5.62626V39.3249V39.6552C5.42809 39.6552 4.94129 39.6882 4.36832 39.7543C3.79536 39.8204 3.23244 39.8979 2.68102 39.9855C2.12816 40.0745 1.62125 40.1636 1.15742 40.2512C0.695025 40.3402 0.351821 40.4278 0.132112 40.5168C0.132112 41.1357 0.120624 41.7647 0.0990842 42.4037C0.0761082 43.0442 0.0430801 43.6947 0 44.3567ZM14.3342 22.4763C14.0455 23.9985 13.9465 25.5551 14.0355 27.1433L37.403 4.69438L37.405 4.70004C38.1101 4.61244 38.9616 4.49182 39.9539 4.33673C40.9476 4.18164 41.6642 4.0165 42.1065 3.83987L42.2386 0H37.405H35.7493L35.7498 0.0014359H32.2407L32.2411 0H30.6544H25.7547L25.6887 3.83987C26.1726 4.0165 26.9121 4.18308 27.9058 4.33673C28.8981 4.49038 29.8143 4.61388 30.6529 4.70147L16.5514 18.4052C15.3595 19.5971 14.6199 20.9542 14.3342 22.4763ZM24.9922 22.2107C24.2196 21.2184 23.8104 20.7 23.7673 20.6555L19.1333 24.8242L31.5145 40.3818C32.8147 42.1797 34.214 43.514 35.7134 44.3829V55.0117C35.3195 55.0117 34.8375 55.0448 34.2701 55.1112C33.7027 55.1775 33.1452 55.2553 32.5992 55.3433C32.0517 55.4327 31.5497 55.5221 31.0904 55.61C30.6325 55.6994 30.3154 55.7873 30.1405 55.8767C30.0978 56.4981 30.0637 57.1296 30.0424 57.7711C30.0196 58.4141 30.0096 59.0672 30.0096 59.7318H42.3344V55.0131V45.8899C42.5854 45.89 42.8406 45.8859 43.1002 45.8774L43.7622 41.9715L42.3344 41.5109V19.9177V15.199H30.0751C29.9869 15.8636 29.9769 16.485 30.0424 17.0602C30.1078 17.6369 30.3367 18.1242 30.7306 18.5235C31.1245 18.9214 31.7147 19.2444 32.5011 19.4866C33.2874 19.7302 34.3582 19.8744 35.7134 19.9177V35.8799C35.585 35.7179 35.4543 35.5528 35.3214 35.3845C34.151 33.9069 32.9046 32.3187 31.5806 30.6184C30.2566 28.9197 29.0202 27.3415 27.8728 25.8854C26.724 24.4278 25.7648 23.2029 24.9922 22.2107ZM46.4655 55.0794C45.6791 55.0794 44.8685 55.0578 44.0395 55.0131H44.0366V59.8674C44.0793 59.8674 44.3637 59.8775 44.8884 59.9005C45.4132 59.9221 46.0133 59.9337 46.6916 59.9337C47.3685 59.9337 48.0681 59.9438 48.7891 59.9668C49.5101 59.9885 50.1116 60 50.5922 60C52.994 60 55.1584 59.7001 57.0824 59.1018C59.005 58.5035 60.6233 57.6731 61.9344 56.6091C63.2455 55.5466 64.2509 54.2606 64.9505 52.754C65.6488 51.2488 66 49.5865 66 47.7686C66 44.8433 65.0515 42.4847 63.1545 40.6898C61.2575 38.8949 58.6722 37.6881 55.4016 37.0668V36.7352C56.4994 36.5593 57.5858 36.2363 58.6623 35.7721C59.7388 35.3079 60.7058 34.6649 61.5618 33.8446C62.4193 33.0242 63.099 31.9948 63.6039 30.7535C64.1087 29.5137 64.3618 28.0287 64.3618 26.3001C64.3618 24.6162 64.0006 23.088 63.2796 21.714C62.5587 20.3401 61.5419 19.155 60.2308 18.1573C58.9197 17.1611 57.3569 16.3855 55.5438 15.8319C53.7292 15.2768 51.7512 15 49.611 15C48.7365 15 47.8079 15.0115 46.8252 15.0332C45.8426 15.0562 44.978 15.0663 44.2357 15.0663H44.1049V19.9177C44.8486 19.9177 45.5909 19.9076 46.3346 19.8845C47.0769 19.8629 47.8193 19.8513 48.563 19.8513C51.4469 19.8513 53.6439 20.4727 55.1513 21.7126C56.6601 22.9539 57.4137 24.769 57.4137 27.1622C57.4137 28.5823 57.162 29.7775 56.6601 30.7521C56.1567 31.7281 55.4798 32.5139 54.628 33.1122C53.7747 33.7105 52.7807 34.1329 51.6445 34.3751C50.5069 34.6187 49.3053 34.7398 48.0382 34.7398H44.1035V39.5926H48.4307C52.0157 39.5926 54.682 40.3466 56.4297 41.8518C58.1774 43.3584 59.0519 45.2412 59.0519 47.5018C59.0519 50.0724 58.1873 51.9884 56.4624 53.2514C54.736 54.5143 52.5617 55.1241 49.9395 55.0794H46.4655Z" fill="#25265D"/>
</svg>
