<svg width="75" height="64" viewBox="0 0 75 64" fill="none" xmlns="http://www.w3.org/2000/svg">
<path d="M65.0065 19.2068C65.0065 22.4642 63.7269 25.5882 61.4493 27.8915C59.1717 30.1948 56.0826 31.4888 52.8616 31.4888C49.6406 31.4888 46.5515 30.1948 44.2739 27.8915C41.9963 25.5882 40.7168 22.4642 40.7168 19.2068C40.7168 15.9494 41.9963 12.8254 44.2739 10.5221C46.5515 8.21876 49.6406 6.92476 52.8616 6.92476C56.0826 6.92476 59.1717 8.21876 61.4493 10.5221C63.7269 12.8254 65.0065 15.9494 65.0065 19.2068Z" fill="#7FA2D0"/>
<path d="M52.8612 29.0325C49.7594 29.0325 46.8034 29.5237 44.1315 30.7519C37.124 33.9452 32.0404 40.5776 31.1523 48.6838C31.1523 51.3858 33.1754 53.5966 35.8585 53.5966H69.864C72.548 53.5966 74.5713 51.3858 74.5713 48.6838C73.6823 40.5776 68.5985 33.9452 61.5909 30.7519C58.9191 29.5237 55.963 29.0325 52.8612 29.0325Z" fill="#7FA2D0"/>
<path d="M33.858 19.2068C33.858 22.4642 32.5785 25.5882 30.3009 27.8915C28.0233 30.1948 24.9342 31.4888 21.7132 31.4888C18.4922 31.4888 15.4031 30.1948 13.1255 27.8915C10.8479 25.5882 9.56836 22.4642 9.56836 19.2068C9.56836 15.9494 10.8479 12.8254 13.1255 10.5221C15.4031 8.21876 18.4922 6.92476 21.7132 6.92476C24.9342 6.92476 28.0233 8.21876 30.3009 10.5221C32.5785 12.8254 33.858 15.9494 33.858 19.2068Z" fill="#7FA2D0"/>
<path d="M21.7138 29.0325C18.612 29.0325 15.6559 29.5237 12.9841 30.7519C5.9765 33.9452 0.892913 40.5776 0.00488281 48.6838C0.00488281 51.3858 2.02797 53.5966 4.711 53.5966H38.7165C41.4005 53.5966 43.4239 51.3858 43.4239 48.6838C42.5349 40.5776 37.451 33.9452 30.4435 30.7519C27.7716 29.5237 24.8156 29.0325 21.7138 29.0325Z" fill="#7FA2D0"/>
<path d="M26.0939 34.069C17.1058 38.1183 10.588 46.5285 9.44922 56.8074C9.44922 60.2336 12.0436 63.037 15.4842 63.037H59.0916C62.5335 63.037 65.1281 60.2336 65.1281 56.8074C63.9881 46.5285 57.4688 38.1183 48.4826 34.069C46.461 38.1183 42.2187 41.2333 37.2879 41.2333C32.3571 41.2333 28.1138 38.1183 26.0939 34.069Z" fill="#0C0A3E"/>
<path d="M52.862 16.3148C52.862 20.4453 51.2212 24.4067 48.3005 27.3274C45.3798 30.2481 41.4185 31.8889 37.288 31.8889C33.1574 31.8889 29.1961 30.2481 26.2754 27.3274C23.3547 24.4067 21.7139 20.4453 21.7139 16.3148C21.7139 12.1843 23.3547 8.22299 26.2754 5.30228C29.1961 2.38157 33.1574 0.740738 37.288 0.740738C41.4185 0.740738 45.3798 2.38157 48.3005 5.30228C51.2212 8.22299 52.862 12.1843 52.862 16.3148Z" fill="#25265D"/>
<path d="M37.2879 28.774C33.3103 28.774 29.5186 29.6119 26.0939 31.1102C17.1058 35.0411 10.588 43.5601 9.44922 53.6926C9.44922 57.1345 12.0436 59.9222 15.4842 59.9222H59.0916C62.5335 59.9222 65.1281 57.1345 65.1281 53.6926C63.9881 43.5601 57.4688 35.0411 48.4826 31.1102C45.0563 29.6119 41.2655 28.774 37.2879 28.774Z" fill="#25265D"/>
</svg>
