<svg width="76" height="48" viewBox="0 0 76 48" fill="none" xmlns="http://www.w3.org/2000/svg">
<path d="M65.8531 13.2076C65.8531 16.465 64.5736 19.5889 62.296 21.8923C60.0184 24.1956 56.9293 25.4896 53.7083 25.4896C50.4873 25.4896 47.3982 24.1956 45.1206 21.8923C42.843 19.5889 41.5635 16.465 41.5635 13.2076C41.5635 9.95016 42.843 6.82618 45.1206 4.52285C47.3982 2.21952 50.4873 0.925522 53.7083 0.925522C56.9293 0.925522 60.0184 2.21952 62.296 4.52285C64.5736 6.82618 65.8531 9.95016 65.8531 13.2076Z" fill="#7FA2D0"/>
<path d="M53.7089 23.0333C50.6071 23.0333 47.651 23.5245 44.9792 24.7527C37.9716 27.946 32.888 34.5784 32 42.6846C32 45.3866 34.0231 47.5974 36.7061 47.5974H70.7116C73.3956 47.5974 75.419 45.3866 75.419 42.6846C74.53 34.5784 69.4462 27.946 62.4386 24.7527C59.7667 23.5245 56.8107 23.0333 53.7089 23.0333Z" fill="#7FA2D0"/>
<path d="M34.7047 13.2076C34.7047 16.465 33.4252 19.5889 31.1476 21.8923C28.87 24.1956 25.7809 25.4896 22.5599 25.4896C19.3389 25.4896 16.2498 24.1956 13.9722 21.8923C11.6946 19.5889 10.415 16.465 10.415 13.2076C10.415 9.95016 11.6946 6.82618 13.9722 4.52285C16.2498 2.21952 19.3389 0.925522 22.5599 0.925522C25.7809 0.925522 28.87 2.21952 31.1476 4.52285C33.4252 6.82618 34.7047 9.95016 34.7047 13.2076Z" fill="#7FA2D0"/>
<path d="M22.5604 23.0333C19.4587 23.0333 16.5026 23.5245 13.8307 24.7527C6.82318 27.946 1.73959 34.5784 0.851562 42.6846C0.851562 45.3866 2.87465 47.5974 5.55768 47.5974H39.5632C42.2472 47.5974 44.2705 45.3866 44.2705 42.6846C43.3815 34.5784 38.2977 27.946 31.2901 24.7527C28.6183 23.5245 25.6622 23.0333 22.5604 23.0333Z" fill="#7FA2D0"/>
<path d="M49.3073 15.1164C49.3073 18.3299 48.0946 21.4117 45.9359 23.684C43.7773 25.9563 40.8495 27.2328 37.7967 27.2328C34.7439 27.2328 31.8162 25.9563 29.6575 23.684C27.4989 21.4117 26.2861 18.3299 26.2861 15.1164C26.2861 11.9029 27.4989 8.82108 29.6575 6.54881C31.8162 4.27655 34.7439 3 37.7967 3C40.8495 3 43.7773 4.27655 45.9359 6.54881C48.0946 8.82108 49.3073 11.9029 49.3073 15.1164Z" fill="#25265D"/>
<path d="M37.7959 24.8095C34.7664 24.8095 31.8785 25.4288 29.27 26.5361C22.4243 29.4414 17.4601 35.7377 16.5928 43.2265C16.5928 45.7703 18.5687 47.8307 21.1893 47.8307H54.4025C57.024 47.8307 59.0002 45.7703 59.0002 43.2265C58.1319 35.7377 53.1665 29.4414 46.3222 26.5361C43.7126 25.4288 40.8254 24.8095 37.7959 24.8095Z" fill="#25265D"/>
</svg>
