<svg width="63" height="65" viewBox="0 0 63 65" fill="none" xmlns="http://www.w3.org/2000/svg">
<path d="M58.7959 4.33331C58.5274 4.27961 58.2588 4.24739 57.9688 4.24739H45.8962V1.39035C45.8962 0.64924 45.284 0.0370178 44.5322 0.0370178C43.7803 0.0370178 43.1788 0.64924 43.1788 1.39035V4.24739H19.4633V1.39035C19.4633 0.638499 18.8511 0.0370178 18.1099 0.0370178C17.3581 0.0370178 16.7566 0.64924 16.7566 1.39035V4.24739H4.67328C4.11476 4.24739 3.57772 4.36554 3.08365 4.56961C1.62291 5.19257 0.591797 6.64257 0.591797 8.32887V55.6203C0.591797 57.8652 2.41772 59.6911 4.66254 59.6911H18.1422C21.7188 62.677 26.3051 64.4815 31.3211 64.4815C36.3262 64.4815 40.9233 62.677 44.4999 59.6911H57.9796C60.2244 59.6911 62.0503 57.8652 62.0503 55.6203V8.32887C62.0503 6.36331 60.6433 4.70924 58.7959 4.33331ZM3.3092 8.32887C3.3092 7.77035 3.65291 7.28702 4.13624 7.08294C4.29735 7.0185 4.47994 6.97554 4.66254 6.97554H16.7351V10.6918C16.7351 11.4437 17.3474 12.0452 18.0885 12.0452C18.8403 12.0452 19.4418 11.4329 19.4418 10.6918V6.9648H43.1574V10.6811C43.1574 11.4329 43.7696 12.0344 44.5107 12.0344C45.2518 12.0344 45.864 11.4222 45.864 10.6811V6.9648H57.9474C58.6885 6.9648 59.3007 7.57702 59.3007 8.31813V21.6581C59.3007 22.41 58.6885 23.0115 57.9474 23.0115H4.67328C3.92143 23.0115 3.31994 22.3992 3.31994 21.6581V8.32887H3.3092ZM3.3092 55.6203V25.4818C3.73883 25.6322 4.18994 25.7289 4.67328 25.7289H21.6974C15.1885 29.1874 10.7525 36.0292 10.7525 43.9022C10.7525 48.8644 12.514 53.4185 15.4462 56.9737H4.66254C3.92143 56.9737 3.3092 56.3722 3.3092 55.6203ZM31.3211 61.7641C21.4718 61.7641 13.4592 53.7515 13.4592 43.9022C13.4592 34.0529 21.4718 26.0403 31.3211 26.0403C41.1703 26.0403 49.1829 34.0529 49.1829 43.9022C49.1829 53.7515 41.1703 61.7641 31.3211 61.7641ZM57.9796 56.9737H47.1959C50.1281 53.4185 51.8896 48.8644 51.8896 43.9022C51.8896 36.0292 47.4429 29.1874 40.934 25.7289H57.9581C58.4414 25.7289 58.8925 25.6322 59.3222 25.4818V55.6203C59.3329 56.3722 58.7207 56.9737 57.9796 56.9737Z" fill="#25265D"/>
<path d="M40.3547 36.4374L27.0147 49.7666L22.278 45.03C21.7195 44.4715 20.8065 44.4715 20.2372 45.03C19.6787 45.5885 19.6787 46.5015 20.2372 47.0707L25.9835 52.8278C26.2521 53.0963 26.6172 53.2467 27.0039 53.2467C27.3906 53.2467 27.7558 53.0963 28.0243 52.8278L42.3847 38.4674C42.9432 37.9089 42.9432 36.9959 42.3847 36.4267C41.8261 35.8681 40.9132 35.8681 40.3547 36.4374Z" fill="#25265D"/>
</svg>
