<svg width="46" height="62" viewBox="0 0 46 62" fill="none" xmlns="http://www.w3.org/2000/svg">
<path d="M29.3175 33.8393C31.7371 32.6833 33.7865 30.8756 35.2356 28.6193H38.9734C39.7984 28.5708 40.5708 28.198 41.1221 27.5823C41.6734 26.9666 41.9589 26.158 41.9164 25.3326V17.61C41.9177 17.2029 41.8449 16.7989 41.7015 16.4178V16.3963C40.6056 12.6159 38.6997 9.11936 36.1164 6.14965L35.9767 5.98854C34.2844 4.11317 32.1819 2.6539 29.833 1.72446C27.3911 0.7817 24.7761 0.370687 22.1627 0.518861C19.5493 0.667034 16.9976 1.37098 14.6778 2.58372C13.0717 3.47509 11.6237 4.62549 10.3923 5.98854L10.2526 6.14965C7.6693 9.11936 5.76344 12.6159 4.66746 16.3963V16.4178C4.52412 16.7989 4.45133 17.2029 4.45265 17.61V25.3326C4.41011 26.158 4.69563 26.9666 5.24693 27.5823C5.79823 28.198 6.5706 28.5708 7.39561 28.6193H11.1334C12.5825 30.8756 14.6319 32.6833 17.0515 33.8393C12.433 35.0695 8.3491 37.7885 5.43251 41.575C2.51592 45.3615 0.929471 50.0042 0.918945 54.7837V60.6482C0.918945 60.933 1.03211 61.2062 1.23353 61.4077C1.43496 61.6091 1.70816 61.7222 1.99302 61.7222H44.376C44.6609 61.7222 44.934 61.6091 45.1355 61.4077C45.3369 61.2062 45.4501 60.933 45.4501 60.6482V54.7837C45.4395 50.0042 43.8531 45.3615 40.9365 41.575C38.0199 37.7885 33.936 35.0695 29.3175 33.8393ZM39.7682 17.61V25.3326C39.7682 25.9341 39.3923 26.4711 38.9734 26.4711H36.3849C36.5675 26.02 36.7393 25.5582 36.879 25.0856C36.879 25.0748 36.8789 25.0748 36.8897 25.0641C37.7412 22.2574 37.7037 19.256 36.7823 16.4715H38.9734C39.3923 16.4715 39.7682 17.0085 39.7682 17.61ZM7.39561 26.4711C6.97672 26.4711 6.6008 25.9341 6.6008 25.3326V17.61C6.6008 17.0085 6.97672 16.4715 7.39561 16.4715H9.58672C8.50531 19.7431 8.6465 23.2957 9.98413 26.4711H7.39561ZM7.67487 14.3234C8.68984 11.8619 10.1013 9.58328 11.853 7.57817L11.9819 7.43854C13.0504 6.2452 14.3144 5.2427 15.7197 4.47409C17.7645 3.42103 20.008 2.80988 22.3043 2.68035C24.6007 2.55082 26.8987 2.9058 29.0489 3.72224C31.0931 4.52915 32.9208 5.80161 34.3871 7.43854L34.516 7.57817C36.2678 9.58328 37.6792 11.8619 38.6941 14.3234H35.8801C34.6749 11.9963 32.8533 10.0452 30.6144 8.68327C28.3754 7.32138 25.8051 6.60108 23.1845 6.60108C20.5639 6.60108 17.9936 7.32138 15.7547 8.68327C13.5157 10.0452 11.6941 11.9963 10.4889 14.3234H7.67487ZM11.0152 20.9182C11.0132 19.2053 11.3728 17.5114 12.0705 15.9471C12.7682 14.3828 13.7882 12.9834 15.0639 11.8404C16.3396 10.6975 17.8422 9.83666 19.4735 9.31433C21.1047 8.792 22.8278 8.61991 24.5301 8.80931C26.2325 8.99871 27.8756 9.54534 29.3522 10.4134C30.8287 11.2815 32.1054 12.4516 33.0986 13.847C34.0919 15.2424 34.7794 16.8318 35.1162 18.5112C35.453 20.1905 35.4315 21.9221 35.053 23.5926H31.4656C31.2452 22.9651 30.8355 22.4214 30.293 22.0366C29.7504 21.6518 29.1019 21.4449 28.4367 21.4445H25.2145C24.3599 21.4445 23.5403 21.7839 22.9361 22.3882C22.3318 22.9925 21.9923 23.8121 21.9923 24.6667C21.9923 25.5213 22.3318 26.3409 22.9361 26.9451C23.5403 27.5494 24.3599 27.8889 25.2145 27.8889H28.4367C29.1019 27.8885 29.7504 27.6816 30.293 27.2968C30.8355 26.912 31.2452 26.3683 31.4656 25.7408H34.3549C33.2452 28.311 31.2831 30.42 28.7996 31.7121C26.316 33.0043 23.4628 33.4005 20.7212 32.834C17.9795 32.2675 15.517 30.7729 13.749 28.6023C11.9809 26.4317 11.0154 23.7178 11.0152 20.9182ZM29.5108 24.6559V24.6774C29.5102 24.8178 29.482 24.9567 29.4277 25.0862C29.3734 25.2156 29.2941 25.3331 29.1943 25.4319C29.0945 25.5306 28.9763 25.6088 28.8463 25.6618C28.7163 25.7148 28.5771 25.7416 28.4367 25.7408H25.2145C24.9296 25.7408 24.6564 25.6276 24.455 25.4262C24.2536 25.2247 24.1404 24.9515 24.1404 24.6667C24.1404 24.3818 24.2536 24.1086 24.455 23.9072C24.6564 23.7058 24.9296 23.5926 25.2145 23.5926H28.4367C28.5771 23.5918 28.7163 23.6186 28.8463 23.6716C28.9763 23.7246 29.0945 23.8027 29.1943 23.9015C29.2941 24.0003 29.3734 24.1178 29.4277 24.2472C29.482 24.3767 29.5102 24.5156 29.5108 24.6559ZM43.3019 59.5741H3.06709V54.7837C3.07505 49.6017 5.13713 44.6342 8.8014 40.9699C12.4657 37.3056 17.4332 35.2435 22.6152 35.2356H23.7538C28.9358 35.2435 33.9033 37.3056 37.5676 40.9699C41.2319 44.6342 43.294 49.6017 43.3019 54.7837V59.5741Z" fill="#25265D"/>
</svg>
