<svg width="15" height="19" viewBox="0 0 15 19" fill="none" xmlns="http://www.w3.org/2000/svg">
<path d="M13.295 18.7714H1.56403C0.755471 18.7714 0.0976562 18.1136 0.0976562 17.305V2.05475C0.0976562 1.24619 0.755471 0.588379 1.56403 0.588379H7.53026C7.92193 0.588379 8.29028 0.741028 8.56698 1.01788L14.3319 6.78278C14.6089 7.05977 14.7614 7.42783 14.7614 7.8195V17.305C14.7614 18.1136 14.1036 18.7714 13.295 18.7714ZM1.56403 1.17493C1.07881 1.17493 0.684205 1.56953 0.684205 2.05475V17.305C0.684205 17.7902 1.07881 18.1848 1.56403 18.1848H13.295C13.7802 18.1848 14.1748 17.7902 14.1748 17.305V7.8195C14.1748 7.58796 14.0808 7.36126 13.9172 7.19747L8.15229 1.43257C7.98615 1.26643 7.76517 1.17493 7.53026 1.17493H1.56403Z" fill="#FD4233"/>
<path d="M12.0056 12.073C11.9953 11.9982 11.9352 11.9043 11.8707 11.8413C11.6859 11.6594 11.2797 11.5641 10.6609 11.5553C10.2415 11.5509 9.7371 11.5876 9.20628 11.6624C8.96873 11.526 8.72384 11.3764 8.53175 11.1961C8.01412 10.7136 7.583 10.0435 7.31319 9.30592C7.33079 9.237 7.34545 9.17688 7.36011 9.11529C7.36011 9.11529 7.65046 7.46122 7.5742 6.90107C7.56394 6.82482 7.55661 6.80282 7.53608 6.7427L7.51115 6.67818C7.43197 6.49489 7.27653 6.30132 7.03311 6.31159L6.88941 6.30719H6.88648C6.61373 6.30719 6.39378 6.4465 6.33512 6.65325C6.15916 7.30432 6.34099 8.27946 6.67092 9.54054L6.58587 9.74583C6.34978 10.3236 6.05358 10.9043 5.79256 11.416L5.75884 11.482C5.48316 12.0202 5.23387 12.4777 5.00659 12.8648L4.77343 12.988C4.75584 12.9968 4.35552 13.2094 4.26167 13.2651C3.46543 13.7417 2.93754 14.2813 2.84955 14.7095C2.82169 14.8473 2.84222 15.0218 2.98446 15.1025L3.21028 15.2169C3.30853 15.2653 3.41264 15.2902 3.51822 15.2902C4.08571 15.2902 4.74411 14.5834 5.65179 12.9997C6.69878 12.6595 7.89241 12.375 8.93793 12.2196C9.73417 12.6668 10.7137 12.9792 11.3325 12.9792C11.4425 12.9792 11.5378 12.9689 11.6141 12.9484C11.7328 12.9161 11.8326 12.8487 11.8941 12.7578C12.0144 12.5774 12.0378 12.3281 12.0056 12.073ZM3.39504 14.8605C3.49769 14.5775 3.90827 14.0174 4.51389 13.5217C4.55201 13.4909 4.64586 13.403 4.73091 13.3208C4.09744 14.3312 3.67366 14.733 3.39504 14.8605ZM6.98179 6.60046C7.16362 6.60046 7.26773 7.05944 7.27653 7.49055C7.28533 7.92167 7.18415 8.22374 7.05951 8.44809C6.9554 8.11669 6.90554 7.59466 6.90554 7.253C6.90554 7.253 6.89821 6.60046 6.98179 6.60046ZM5.91134 12.4865C6.03891 12.2592 6.17089 12.0187 6.30579 11.765C6.63573 11.1418 6.84395 10.655 6.99792 10.2547C7.30586 10.8148 7.69005 11.2914 8.14022 11.6726C8.19741 11.7196 8.25753 11.768 8.31912 11.8164C7.40264 11.9967 6.60933 12.2181 5.91134 12.4865ZM11.6932 12.4352C11.6375 12.4689 11.4777 12.4894 11.375 12.4894C11.0436 12.4894 10.6316 12.3384 10.0553 12.0906C10.2767 12.0744 10.4806 12.0656 10.6624 12.0656C10.9953 12.0656 11.0935 12.0642 11.4205 12.1478C11.746 12.2313 11.7504 12.4 11.6932 12.4352Z" fill="#FF402F"/>
</svg>
